<svg xmlns="http://www.w3.org/2000/svg" width="760" height="600" viewBox="0 0 760 600" role="img" aria-labelledby="title description"><title id="title">Research maturity before and after v1.1.0</title><desc id="description">Eight dimensions improve from an average of 44 to 95 out of 100.</desc><style>.bg{fill:#07111f}.title{fill:#f5f8ff;font:700 25px system-ui}.sub,.label,.score,.note{font-family:system-ui}.sub,.note{fill:#9fb3cc}.label{fill:#e5edf8;font-size:13px}.score{fill:#f5f8ff;font-size:11px}.before{fill:#64748b}.after{fill:#7ce38b}</style><rect class="bg" width="760" height="600" rx="22"/><text x="32" y="40" class="title">Spectral Noise Budget Studio · v1.1.0</text><text x="32" y="66" class="sub">Research maturity audit · before 44 / after 95</text><text x="32" y="113" class="label">Scientific question</text><rect x="236" y="97" width="180.6" height="14" rx="7" class="before"/><rect x="236" y="118" width="412.79999999999995" height="14" rx="7" class="after"/><text x="426.6" y="109" class="score">42</text><text x="658.8" y="130" class="score">96</text><text x="32" y="167" class="label">Provenance</text><rect x="236" y="151" width="292.4" height="14" rx="7" class="before"/><rect x="236" y="172" width="421.4" height="14" rx="7" class="after"/><text x="538.4" y="163" class="score">68</text><text x="667.4" y="184" class="score">98</text><text x="32" y="221" class="label">Method validity</text><rect x="236" y="205" width="193.5" height="14" rx="7" class="before"/><rect x="236" y="226" width="408.5" height="14" rx="7" class="after"/><text x="439.5" y="217" class="score">45</text><text x="654.5" y="238" class="score">95</text><text x="32" y="275" class="label">Evidence products</text><rect x="236" y="259" width="107.5" height="14" rx="7" class="before"/><rect x="236" y="280" width="412.79999999999995" height="14" rx="7" class="after"/><text x="353.5" y="271" class="score">25</text><text x="658.8" y="292" class="score">96</text><text x="32" y="329" class="label">Test depth</text><rect x="236" y="313" width="133.29999999999998" height="14" rx="7" class="before"/><rect x="236" y="334" width="404.2" height="14" rx="7" class="after"/><text x="379.29999999999995" y="325" class="score">31</text><text x="650.2" y="346" class="score">94</text><text x="32" y="383" class="label">Claim discipline</text><rect x="236" y="367" width="245.1" height="14" rx="7" class="before"/><rect x="236" y="388" width="417.09999999999997" height="14" rx="7" class="after"/><text x="491.1" y="379" class="score">57</text><text x="663.0999999999999" y="400" class="score">97</text><text x="32" y="437" class="label">Reproducibility</text><rect x="236" y="421" width="215" height="14" rx="7" class="before"/><rect x="236" y="442" width="412.79999999999995" height="14" rx="7" class="after"/><text x="461" y="433" class="score">50</text><text x="658.8" y="454" class="score">96</text><text x="32" y="491" class="label">Maintenance</text><rect x="236" y="475" width="154.79999999999998" height="14" rx="7" class="before"/><rect x="236" y="496" width="391.3" height="14" rx="7" class="after"/><text x="400.79999999999995" y="487" class="score">36</text><text x="637.3" y="508" class="score">91</text><rect x="32" y="544" width="14" height="14" rx="7" class="before"/><text x="54" y="556" class="note">before</text><rect x="116" y="544" width="14" height="14" rx="7" class="after"/><text x="138" y="556" class="note">after</text><text x="32" y="582" class="note">Scores are a documented repository-maturity rubric, not scientific performance measurements.</text></svg>
